<svg width="192" height="96" viewBox="0 0 192 96" fill="none" xmlns="http://www.w3.org/2000/svg">
<path d="M105.264 14.8158C104.681 10.2265 100.751 6.6665 96.0052 6.6665C92.3305 6.6665 89.1385 8.8145 87.6812 12.1998C84.8172 13.0558 82.6719 15.7598 82.6719 18.6665C82.6719 22.3425 85.6625 25.3332 89.3385 25.3332H90.6719V22.6665H89.3385C87.1332 22.6665 85.3385 20.8718 85.3385 18.6665C85.3385 16.7945 86.9372 14.9905 88.9025 14.6452L89.6772 14.5092L89.9332 13.7652C90.8705 11.0305 93.1972 9.33317 96.0052 9.33317C99.6812 9.33317 102.672 12.3238 102.672 15.9998V17.3332H104.005C105.476 17.3332 106.672 18.5292 106.672 19.9998C106.672 21.4705 105.476 22.6665 104.005 22.6665H101.339V25.3332H104.005C106.947 25.3332 109.339 22.9412 109.339 19.9998C109.337 18.8045 108.935 17.6443 108.196 16.7045C107.457 15.7647 106.425 15.0998 105.264 14.8158Z" fill="#FAFAFA"/>
<path d="M97.3385 18.6665V13.3332H94.6719V18.6665H90.6719L96.0052 25.3332L101.339 18.6665H97.3385Z" fill="#FAFAFA"/>
<path d="M21.9531 65H19.5781L19.5938 63.7734H21.9531C22.7656 63.7734 23.4427 63.6042 23.9844 63.2656C24.526 62.9219 24.9323 62.4427 25.2031 61.8281C25.4792 61.2083 25.6172 60.4844 25.6172 59.6562V58.9609C25.6172 58.3099 25.5391 57.7318 25.3828 57.2266C25.2266 56.7161 24.9974 56.2865 24.6953 55.9375C24.3932 55.5833 24.0234 55.3151 23.5859 55.1328C23.1536 54.9505 22.6562 54.8594 22.0938 54.8594H19.5312V53.625H22.0938C22.8385 53.625 23.5182 53.75 24.1328 54C24.7474 54.2448 25.276 54.6016 25.7188 55.0703C26.1667 55.5339 26.5104 56.0964 26.75 56.7578C26.9896 57.4141 27.1094 58.1536 27.1094 58.9766V59.6562C27.1094 60.4792 26.9896 61.2214 26.75 61.8828C26.5104 62.5391 26.1641 63.099 25.7109 63.5625C25.263 64.026 24.7214 64.3828 24.0859 64.6328C23.4557 64.8776 22.7448 65 21.9531 65ZM20.3828 53.625V65H18.875V53.625H20.3828ZM30.6016 57.875V65H29.1562V56.5469H30.5625L30.6016 57.875ZM33.2422 56.5L33.2344 57.8438C33.1146 57.8177 33 57.8021 32.8906 57.7969C32.7865 57.7865 32.6667 57.7812 32.5312 57.7812C32.1979 57.7812 31.9036 57.8333 31.6484 57.9375C31.3932 58.0417 31.1771 58.1875 31 58.375C30.8229 58.5625 30.6823 58.7865 30.5781 59.0469C30.4792 59.3021 30.4141 59.5833 30.3828 59.8906L29.9766 60.125C29.9766 59.6146 30.026 59.1354 30.125 58.6875C30.2292 58.2396 30.388 57.8438 30.6016 57.5C30.8151 57.151 31.0859 56.8802 31.4141 56.6875C31.7474 56.4896 32.1432 56.3906 32.6016 56.3906C32.7057 56.3906 32.8255 56.4036 32.9609 56.4297C33.0964 56.4505 33.1901 56.474 33.2422 56.5ZM39.25 63.5547V59.2031C39.25 58.8698 39.1823 58.5807 39.0469 58.3359C38.9167 58.0859 38.7188 57.8932 38.4531 57.7578C38.1875 57.6224 37.8594 57.5547 37.4688 57.5547C37.1042 57.5547 36.7839 57.6172 36.5078 57.7422C36.237 57.8672 36.0234 58.0312 35.8672 58.2344C35.7161 58.4375 35.6406 58.6562 35.6406 58.8906H34.1953C34.1953 58.5885 34.2734 58.2891 34.4297 57.9922C34.5859 57.6953 34.8099 57.4271 35.1016 57.1875C35.3984 56.9427 35.7526 56.75 36.1641 56.6094C36.5807 56.4635 37.0443 56.3906 37.5547 56.3906C38.1693 56.3906 38.7109 56.4948 39.1797 56.7031C39.6536 56.9115 40.0234 57.2266 40.2891 57.6484C40.5599 58.0651 40.6953 58.5885 40.6953 59.2188V63.1562C40.6953 63.4375 40.7188 63.737 40.7656 64.0547C40.8177 64.3724 40.8932 64.6458 40.9922 64.875V65H39.4844C39.4115 64.8333 39.3542 64.612 39.3125 64.3359C39.2708 64.0547 39.25 63.7943 39.25 63.5547ZM39.5 59.875L39.5156 60.8906H38.0547C37.6432 60.8906 37.276 60.9245 36.9531 60.9922C36.6302 61.0547 36.3594 61.151 36.1406 61.2812C35.9219 61.4115 35.7552 61.5755 35.6406 61.7734C35.526 61.9661 35.4688 62.1927 35.4688 62.4531C35.4688 62.7188 35.5286 62.9609 35.6484 63.1797C35.7682 63.3984 35.9479 63.5729 36.1875 63.7031C36.4323 63.8281 36.7318 63.8906 37.0859 63.8906C37.5286 63.8906 37.9193 63.7969 38.2578 63.6094C38.5964 63.4219 38.8646 63.1927 39.0625 62.9219C39.2656 62.651 39.375 62.388 39.3906 62.1328L40.0078 62.8281C39.9714 63.0469 39.8724 63.2891 39.7109 63.5547C39.5495 63.8203 39.3333 64.0755 39.0625 64.3203C38.7969 64.5599 38.4792 64.7604 38.1094 64.9219C37.7448 65.0781 37.3333 65.1562 36.875 65.1562C36.3021 65.1562 35.7995 65.0443 35.3672 64.8203C34.9401 64.5964 34.6068 64.2969 34.3672 63.9219C34.1328 63.5417 34.0156 63.1172 34.0156 62.6484C34.0156 62.1953 34.1042 61.7969 34.2812 61.4531C34.4583 61.1042 34.7135 60.8151 35.0469 60.5859C35.3802 60.3516 35.7812 60.1745 36.25 60.0547C36.7188 59.9349 37.2422 59.875 37.8203 59.875H39.5ZM48.4453 56.5469H49.7578V64.8203C49.7578 65.5651 49.6068 66.2005 49.3047 66.7266C49.0026 67.2526 48.5807 67.651 48.0391 67.9219C47.5026 68.1979 46.8828 68.3359 46.1797 68.3359C45.888 68.3359 45.5443 68.2891 45.1484 68.1953C44.7578 68.1068 44.3724 67.9531 43.9922 67.7344C43.6172 67.5208 43.3021 67.2318 43.0469 66.8672L43.8047 66.0078C44.1589 66.4349 44.5286 66.7318 44.9141 66.8984C45.3047 67.0651 45.6901 67.1484 46.0703 67.1484C46.5286 67.1484 46.9245 67.0625 47.2578 66.8906C47.5911 66.7188 47.849 66.4635 48.0312 66.125C48.2188 65.7917 48.3125 65.3802 48.3125 64.8906V58.4062L48.4453 56.5469ZM42.625 60.8672V60.7031C42.625 60.0573 42.7005 59.4714 42.8516 58.9453C43.0078 58.4141 43.2292 57.9583 43.5156 57.5781C43.8073 57.1979 44.1589 56.9062 44.5703 56.7031C44.9818 56.4948 45.4453 56.3906 45.9609 56.3906C46.4922 56.3906 46.9557 56.4844 47.3516 56.6719C47.7526 56.8542 48.0911 57.1224 48.3672 57.4766C48.6484 57.8255 48.8698 58.2474 49.0312 58.7422C49.1927 59.237 49.3047 59.7969 49.3672 60.4219V61.1406C49.3099 61.7604 49.1979 62.3177 49.0312 62.8125C48.8698 63.3073 48.6484 63.7292 48.3672 64.0781C48.0911 64.4271 47.7526 64.6953 47.3516 64.8828C46.9505 65.0651 46.4818 65.1562 45.9453 65.1562C45.4401 65.1562 44.9818 65.0495 44.5703 64.8359C44.1641 64.6224 43.8151 64.3229 43.5234 63.9375C43.2318 63.5521 43.0078 63.099 42.8516 62.5781C42.7005 62.0521 42.625 61.4818 42.625 60.8672ZM44.0703 60.7031V60.8672C44.0703 61.2891 44.112 61.6849 44.1953 62.0547C44.2839 62.4245 44.4167 62.75 44.5938 63.0312C44.776 63.3125 45.0078 63.5339 45.2891 63.6953C45.5703 63.8516 45.9062 63.9297 46.2969 63.9297C46.776 63.9297 47.1719 63.8281 47.4844 63.625C47.7969 63.4219 48.0443 63.1536 48.2266 62.8203C48.4141 62.487 48.5599 62.125 48.6641 61.7344V59.8516C48.6068 59.5651 48.5182 59.2891 48.3984 59.0234C48.2839 58.7526 48.1328 58.513 47.9453 58.3047C47.763 58.0911 47.5365 57.9219 47.2656 57.7969C46.9948 57.6719 46.6771 57.6094 46.3125 57.6094C45.9167 57.6094 45.5755 57.6927 45.2891 57.8594C45.0078 58.0208 44.776 58.2448 44.5938 58.5312C44.4167 58.8125 44.2839 59.1406 44.1953 59.5156C44.112 59.8854 44.0703 60.2812 44.0703 60.7031ZM58.0234 58.6875L59.7266 57.4766C60.0547 57.2526 60.3073 57.0286 60.4844 56.8047C60.6667 56.5755 60.7578 56.263 60.7578 55.8672C60.7578 55.5599 60.638 55.2812 60.3984 55.0312C60.1589 54.776 59.8203 54.6484 59.3828 54.6484C59.0807 54.6484 58.8255 54.7188 58.6172 54.8594C58.4089 55 58.2526 55.1875 58.1484 55.4219C58.0443 55.651 57.9922 55.9036 57.9922 56.1797C57.9922 56.4141 58.0495 56.6562 58.1641 56.9062C58.2786 57.1562 58.4375 57.4167 58.6406 57.6875C58.8438 57.9583 59.0755 58.2448 59.3359 58.5469L64.7188 65H62.9844L58.5703 59.7188C58.1797 59.2604 57.8307 58.8411 57.5234 58.4609C57.2161 58.0755 56.974 57.7031 56.7969 57.3438C56.625 56.9844 56.5391 56.612 56.5391 56.2266C56.5391 55.6328 56.6562 55.1328 56.8906 54.7266C57.1302 54.3151 57.4635 54.0026 57.8906 53.7891C58.3177 53.5755 58.8177 53.4688 59.3906 53.4688C59.9479 53.4688 60.4271 53.5807 60.8281 53.8047C61.2344 54.0234 61.5469 54.3151 61.7656 54.6797C61.9844 55.0391 62.0938 55.4349 62.0938 55.8672C62.0938 56.2318 62.0286 56.5599 61.8984 56.8516C61.7682 57.138 61.5859 57.401 61.3516 57.6406C61.1224 57.8802 60.8542 58.1146 60.5469 58.3438L58.2891 60.0234C57.9141 60.2995 57.6406 60.5625 57.4688 60.8125C57.2969 61.0625 57.1849 61.2839 57.1328 61.4766C57.0859 61.6693 57.0625 61.8229 57.0625 61.9375C57.0625 62.3073 57.1432 62.6458 57.3047 62.9531C57.4661 63.2604 57.7109 63.5078 58.0391 63.6953C58.3724 63.8776 58.7891 63.9688 59.2891 63.9688C59.7266 63.9688 60.151 63.8698 60.5625 63.6719C60.9792 63.4688 61.3516 63.1823 61.6797 62.8125C62.0078 62.4375 62.2682 61.9922 62.4609 61.4766C62.6589 60.9557 62.7578 60.3802 62.7578 59.75H64.0547C64.0547 60.2656 64.0052 60.7526 63.9062 61.2109C63.8073 61.6693 63.6536 62.0964 63.4453 62.4922C63.2422 62.8828 62.9818 63.2396 62.6641 63.5625C62.6172 63.6094 62.5807 63.6641 62.5547 63.7266C62.5286 63.7891 62.4922 63.8438 62.4453 63.8906C62.0547 64.3125 61.5729 64.6302 61 64.8438C60.4323 65.0521 59.862 65.1562 59.2891 65.1562C58.5339 65.1562 57.8802 65.0182 57.3281 64.7422C56.7812 64.4661 56.3594 64.0859 56.0625 63.6016C55.7656 63.1172 55.6172 62.5625 55.6172 61.9375C55.6172 61.4583 55.7188 61.0365 55.9219 60.6719C56.1302 60.3073 56.4141 59.9661 56.7734 59.6484C57.138 59.3307 57.5547 59.0104 58.0234 58.6875ZM75.1719 63.3594V53H76.625V65H75.2969L75.1719 63.3594ZM69.4844 60.8672V60.7031C69.4844 60.0573 69.5625 59.4714 69.7188 58.9453C69.8802 58.4141 70.1068 57.9583 70.3984 57.5781C70.6953 57.1979 71.0469 56.9062 71.4531 56.7031C71.8646 56.4948 72.3229 56.3906 72.8281 56.3906C73.3594 56.3906 73.8229 56.4844 74.2188 56.6719C74.6198 56.8542 74.9583 57.1224 75.2344 57.4766C75.5156 57.8255 75.737 58.2474 75.8984 58.7422C76.0599 59.237 76.1719 59.7969 76.2344 60.4219V61.1406C76.1771 61.7604 76.0651 62.3177 75.8984 62.8125C75.737 63.3073 75.5156 63.7292 75.2344 64.0781C74.9583 64.4271 74.6198 64.6953 74.2188 64.8828C73.8177 65.0651 73.349 65.1562 72.8125 65.1562C72.3177 65.1562 71.8646 65.0495 71.4531 64.8359C71.0469 64.6224 70.6953 64.3229 70.3984 63.9375C70.1068 63.5521 69.8802 63.099 69.7188 62.5781C69.5625 62.0521 69.4844 61.4818 69.4844 60.8672ZM70.9375 60.7031V60.8672C70.9375 61.2891 70.9792 61.6849 71.0625 62.0547C71.151 62.4245 71.2865 62.75 71.4688 63.0312C71.651 63.3125 71.8828 63.5339 72.1641 63.6953C72.4453 63.8516 72.7812 63.9297 73.1719 63.9297C73.651 63.9297 74.0443 63.8281 74.3516 63.625C74.6641 63.4219 74.9141 63.1536 75.1016 62.8203C75.2891 62.487 75.4349 62.125 75.5391 61.7344V59.8516C75.4766 59.5651 75.3854 59.2891 75.2656 59.0234C75.151 58.7526 75 58.513 74.8125 58.3047C74.6302 58.0911 74.4036 57.9219 74.1328 57.7969C73.8672 57.6719 73.5521 57.6094 73.1875 57.6094C72.7917 57.6094 72.4505 57.6927 72.1641 57.8594C71.8828 58.0208 71.651 58.2448 71.4688 58.5312C71.2865 58.8125 71.151 59.1406 71.0625 59.5156C70.9792 59.8854 70.9375 60.2812 70.9375 60.7031ZM80.3203 57.875V65H78.875V56.5469H80.2812L80.3203 57.875ZM82.9609 56.5L82.9531 57.8438C82.8333 57.8177 82.7188 57.8021 82.6094 57.7969C82.5052 57.7865 82.3854 57.7812 82.25 57.7812C81.9167 57.7812 81.6224 57.8333 81.3672 57.9375C81.112 58.0417 80.8958 58.1875 80.7188 58.375C80.5417 58.5625 80.401 58.7865 80.2969 59.0469C80.1979 59.3021 80.1328 59.5833 80.1016 59.8906L79.6953 60.125C79.6953 59.6146 79.7448 59.1354 79.8438 58.6875C79.9479 58.2396 80.1068 57.8438 80.3203 57.5C80.5339 57.151 80.8047 56.8802 81.1328 56.6875C81.4661 56.4896 81.862 56.3906 82.3203 56.3906C82.4245 56.3906 82.5443 56.4036 82.6797 56.4297C82.8151 56.4505 82.9089 56.474 82.9609 56.5ZM83.7578 60.8672V60.6875C83.7578 60.0781 83.8464 59.513 84.0234 58.9922C84.2005 58.4661 84.4557 58.0104 84.7891 57.625C85.1224 57.2344 85.526 56.9323 86 56.7188C86.474 56.5 87.0052 56.3906 87.5938 56.3906C88.1875 56.3906 88.7214 56.5 89.1953 56.7188C89.6745 56.9323 90.0807 57.2344 90.4141 57.625C90.7526 58.0104 91.0104 58.4661 91.1875 58.9922C91.3646 59.513 91.4531 60.0781 91.4531 60.6875V60.8672C91.4531 61.4766 91.3646 62.0417 91.1875 62.5625C91.0104 63.0833 90.7526 63.5391 90.4141 63.9297C90.0807 64.3151 89.6771 64.6172 89.2031 64.8359C88.7344 65.0495 88.2031 65.1562 87.6094 65.1562C87.0156 65.1562 86.4818 65.0495 86.0078 64.8359C85.5339 64.6172 85.1276 64.3151 84.7891 63.9297C84.4557 63.5391 84.2005 63.0833 84.0234 62.5625C83.8464 62.0417 83.7578 61.4766 83.7578 60.8672ZM85.2031 60.6875V60.8672C85.2031 61.2891 85.2526 61.6875 85.3516 62.0625C85.4505 62.4323 85.599 62.7604 85.7969 63.0469C86 63.3333 86.2526 63.5599 86.5547 63.7266C86.8568 63.888 87.2083 63.9688 87.6094 63.9688C88.0052 63.9688 88.3516 63.888 88.6484 63.7266C88.9505 63.5599 89.2005 63.3333 89.3984 63.0469C89.5964 62.7604 89.7448 62.4323 89.8438 62.0625C89.9479 61.6875 90 61.2891 90 60.8672V60.6875C90 60.2708 89.9479 59.8776 89.8438 59.5078C89.7448 59.1328 89.5938 58.8021 89.3906 58.5156C89.1927 58.224 88.9427 57.9948 88.6406 57.8281C88.3438 57.6615 87.9948 57.5781 87.5938 57.5781C87.1979 57.5781 86.849 57.6615 86.5469 57.8281C86.25 57.9948 86 58.224 85.7969 58.5156C85.599 58.8021 85.4505 59.1328 85.3516 59.5078C85.2526 59.8776 85.2031 60.2708 85.2031 60.6875ZM94.7109 58.1719V68.25H93.2578V56.5469H94.5859L94.7109 58.1719ZM100.406 60.7031V60.8672C100.406 61.4818 100.333 62.0521 100.188 62.5781C100.042 63.099 99.8281 63.5521 99.5469 63.9375C99.2708 64.3229 98.9297 64.6224 98.5234 64.8359C98.1172 65.0495 97.651 65.1562 97.125 65.1562C96.5885 65.1562 96.1146 65.0677 95.7031 64.8906C95.2917 64.7135 94.9427 64.4557 94.6562 64.1172C94.3698 63.7786 94.1406 63.3724 93.9688 62.8984C93.8021 62.4245 93.6875 61.8906 93.625 61.2969V60.4219C93.6875 59.7969 93.8047 59.237 93.9766 58.7422C94.1484 58.2474 94.375 57.8255 94.6562 57.4766C94.9427 57.1224 95.2891 56.8542 95.6953 56.6719C96.1016 56.4844 96.5703 56.3906 97.1016 56.3906C97.6328 56.3906 98.1042 56.4948 98.5156 56.7031C98.9271 56.9062 99.2734 57.1979 99.5547 57.5781C99.8359 57.9583 100.047 58.4141 100.188 58.9453C100.333 59.4714 100.406 60.0573 100.406 60.7031ZM98.9531 60.8672V60.7031C98.9531 60.2812 98.9089 59.8854 98.8203 59.5156C98.7318 59.1406 98.5938 58.8125 98.4062 58.5312C98.224 58.2448 97.9896 58.0208 97.7031 57.8594C97.4167 57.6927 97.0755 57.6094 96.6797 57.6094C96.3151 57.6094 95.9974 57.6719 95.7266 57.7969C95.4609 57.9219 95.2344 58.0911 95.0469 58.3047C94.8594 58.513 94.7057 58.7526 94.5859 59.0234C94.4714 59.2891 94.3854 59.5651 94.3281 59.8516V61.875C94.4323 62.2396 94.5781 62.5833 94.7656 62.9062C94.9531 63.224 95.2031 63.4818 95.5156 63.6797C95.8281 63.8724 96.2214 63.9688 96.6953 63.9688C97.0859 63.9688 97.4219 63.888 97.7031 63.7266C97.9896 63.5599 98.224 63.3333 98.4062 63.0469C98.5938 62.7604 98.7318 62.4323 98.8203 62.0625C98.9089 61.6875 98.9531 61.2891 98.9531 60.8672ZM105.836 60.8672V60.6875C105.836 60.0781 105.924 59.513 106.102 58.9922C106.279 58.4661 106.534 58.0104 106.867 57.625C107.201 57.2344 107.604 56.9323 108.078 56.7188C108.552 56.5 109.083 56.3906 109.672 56.3906C110.266 56.3906 110.799 56.5 111.273 56.7188C111.753 56.9323 112.159 57.2344 112.492 57.625C112.831 58.0104 113.089 58.4661 113.266 58.9922C113.443 59.513 113.531 60.0781 113.531 60.6875V60.8672C113.531 61.4766 113.443 62.0417 113.266 62.5625C113.089 63.0833 112.831 63.5391 112.492 63.9297C112.159 64.3151 111.755 64.6172 111.281 64.8359C110.812 65.0495 110.281 65.1562 109.688 65.1562C109.094 65.1562 108.56 65.0495 108.086 64.8359C107.612 64.6172 107.206 64.3151 106.867 63.9297C106.534 63.5391 106.279 63.0833 106.102 62.5625C105.924 62.0417 105.836 61.4766 105.836 60.8672ZM107.281 60.6875V60.8672C107.281 61.2891 107.331 61.6875 107.43 62.0625C107.529 62.4323 107.677 62.7604 107.875 63.0469C108.078 63.3333 108.331 63.5599 108.633 63.7266C108.935 63.888 109.286 63.9688 109.688 63.9688C110.083 63.9688 110.43 63.888 110.727 63.7266C111.029 63.5599 111.279 63.3333 111.477 63.0469C111.674 62.7604 111.823 62.4323 111.922 62.0625C112.026 61.6875 112.078 61.2891 112.078 60.8672V60.6875C112.078 60.2708 112.026 59.8776 111.922 59.5078C111.823 59.1328 111.672 58.8021 111.469 58.5156C111.271 58.224 111.021 57.9948 110.719 57.8281C110.422 57.6615 110.073 57.5781 109.672 57.5781C109.276 57.5781 108.927 57.6615 108.625 57.8281C108.328 57.9948 108.078 58.224 107.875 58.5156C107.677 58.8021 107.529 59.1328 107.43 59.5078C107.331 59.8776 107.281 60.2708 107.281 60.6875ZM116.789 57.875V65H115.344V56.5469H116.75L116.789 57.875ZM119.43 56.5L119.422 57.8438C119.302 57.8177 119.188 57.8021 119.078 57.7969C118.974 57.7865 118.854 57.7812 118.719 57.7812C118.385 57.7812 118.091 57.8333 117.836 57.9375C117.581 58.0417 117.365 58.1875 117.188 58.375C117.01 58.5625 116.87 58.7865 116.766 59.0469C116.667 59.3021 116.602 59.5833 116.57 59.8906L116.164 60.125C116.164 59.6146 116.214 59.1354 116.312 58.6875C116.417 58.2396 116.576 57.8438 116.789 57.5C117.003 57.151 117.273 56.8802 117.602 56.6875C117.935 56.4896 118.331 56.3906 118.789 56.3906C118.893 56.3906 119.013 56.4036 119.148 56.4297C119.284 56.4505 119.378 56.474 119.43 56.5ZM128.117 63.9688C128.461 63.9688 128.779 63.8984 129.07 63.7578C129.362 63.6172 129.602 63.4245 129.789 63.1797C129.977 62.9297 130.083 62.6458 130.109 62.3281H131.484C131.458 62.8281 131.289 63.2943 130.977 63.7266C130.669 64.1536 130.266 64.5 129.766 64.7656C129.266 65.026 128.716 65.1562 128.117 65.1562C127.482 65.1562 126.927 65.0443 126.453 64.8203C125.984 64.5964 125.594 64.2891 125.281 63.8984C124.974 63.5078 124.742 63.0599 124.586 62.5547C124.435 62.0443 124.359 61.5052 124.359 60.9375V60.6094C124.359 60.0417 124.435 59.5052 124.586 59C124.742 58.4896 124.974 58.0391 125.281 57.6484C125.594 57.2578 125.984 56.9505 126.453 56.7266C126.927 56.5026 127.482 56.3906 128.117 56.3906C128.779 56.3906 129.357 56.526 129.852 56.7969C130.346 57.0625 130.734 57.4271 131.016 57.8906C131.302 58.349 131.458 58.8698 131.484 59.4531H130.109C130.083 59.1042 129.984 58.7891 129.812 58.5078C129.646 58.2266 129.417 58.0026 129.125 57.8359C128.839 57.6641 128.503 57.5781 128.117 57.5781C127.674 57.5781 127.302 57.6667 127 57.8438C126.703 58.0156 126.466 58.25 126.289 58.5469C126.117 58.8385 125.992 59.1641 125.914 59.5234C125.841 59.8776 125.805 60.2396 125.805 60.6094V60.9375C125.805 61.3073 125.841 61.6719 125.914 62.0312C125.987 62.3906 126.109 62.7161 126.281 63.0078C126.458 63.2995 126.695 63.5339 126.992 63.7109C127.294 63.8828 127.669 63.9688 128.117 63.9688ZM134.68 53V65H133.227V53H134.68ZM138.57 56.5469V65H137.117V56.5469H138.57ZM137.008 54.3047C137.008 54.0703 137.078 53.8724 137.219 53.7109C137.365 53.5495 137.578 53.4688 137.859 53.4688C138.135 53.4688 138.346 53.5495 138.492 53.7109C138.643 53.8724 138.719 54.0703 138.719 54.3047C138.719 54.5286 138.643 54.7214 138.492 54.8828C138.346 55.0391 138.135 55.1172 137.859 55.1172C137.578 55.1172 137.365 55.0391 137.219 54.8828C137.078 54.7214 137.008 54.5286 137.008 54.3047ZM144.273 63.9688C144.617 63.9688 144.935 63.8984 145.227 63.7578C145.518 63.6172 145.758 63.4245 145.945 63.1797C146.133 62.9297 146.24 62.6458 146.266 62.3281H147.641C147.615 62.8281 147.445 63.2943 147.133 63.7266C146.826 64.1536 146.422 64.5 145.922 64.7656C145.422 65.026 144.872 65.1562 144.273 65.1562C143.638 65.1562 143.083 65.0443 142.609 64.8203C142.141 64.5964 141.75 64.2891 141.438 63.8984C141.13 63.5078 140.898 63.0599 140.742 62.5547C140.591 62.0443 140.516 61.5052 140.516 60.9375V60.6094C140.516 60.0417 140.591 59.5052 140.742 59C140.898 58.4896 141.13 58.0391 141.438 57.6484C141.75 57.2578 142.141 56.9505 142.609 56.7266C143.083 56.5026 143.638 56.3906 144.273 56.3906C144.935 56.3906 145.513 56.526 146.008 56.7969C146.503 57.0625 146.891 57.4271 147.172 57.8906C147.458 58.349 147.615 58.8698 147.641 59.4531H146.266C146.24 59.1042 146.141 58.7891 145.969 58.5078C145.802 58.2266 145.573 58.0026 145.281 57.8359C144.995 57.6641 144.659 57.5781 144.273 57.5781C143.831 57.5781 143.458 57.6667 143.156 57.8438C142.859 58.0156 142.622 58.25 142.445 58.5469C142.273 58.8385 142.148 59.1641 142.07 59.5234C141.997 59.8776 141.961 60.2396 141.961 60.6094V60.9375C141.961 61.3073 141.997 61.6719 142.07 62.0312C142.143 62.3906 142.266 62.7161 142.438 63.0078C142.615 63.2995 142.852 63.5339 143.148 63.7109C143.451 63.8828 143.826 63.9688 144.273 63.9688ZM150.719 53V65H149.266V53H150.719ZM155.883 56.5469L152.195 60.4922L150.133 62.6328L150.016 61.0938L151.492 59.3281L154.117 56.5469H155.883ZM154.562 65L151.547 60.9688L152.297 59.6797L156.266 65H154.562ZM164.883 56.5469V57.6562H160.312V56.5469H164.883ZM161.859 54.4922H163.305V62.9062C163.305 63.1927 163.349 63.4089 163.438 63.5547C163.526 63.7005 163.641 63.7969 163.781 63.8438C163.922 63.8906 164.073 63.9141 164.234 63.9141C164.354 63.9141 164.479 63.9036 164.609 63.8828C164.745 63.8568 164.846 63.8359 164.914 63.8203L164.922 65C164.807 65.0365 164.656 65.0703 164.469 65.1016C164.286 65.138 164.065 65.1562 163.805 65.1562C163.451 65.1562 163.125 65.0859 162.828 64.9453C162.531 64.8047 162.294 64.5703 162.117 64.2422C161.945 63.9089 161.859 63.4609 161.859 62.8984V54.4922ZM166.039 60.8672V60.6875C166.039 60.0781 166.128 59.513 166.305 58.9922C166.482 58.4661 166.737 58.0104 167.07 57.625C167.404 57.2344 167.807 56.9323 168.281 56.7188C168.755 56.5 169.286 56.3906 169.875 56.3906C170.469 56.3906 171.003 56.5 171.477 56.7188C171.956 56.9323 172.362 57.2344 172.695 57.625C173.034 58.0104 173.292 58.4661 173.469 58.9922C173.646 59.513 173.734 60.0781 173.734 60.6875V60.8672C173.734 61.4766 173.646 62.0417 173.469 62.5625C173.292 63.0833 173.034 63.5391 172.695 63.9297C172.362 64.3151 171.958 64.6172 171.484 64.8359C171.016 65.0495 170.484 65.1562 169.891 65.1562C169.297 65.1562 168.763 65.0495 168.289 64.8359C167.815 64.6172 167.409 64.3151 167.07 63.9297C166.737 63.5391 166.482 63.0833 166.305 62.5625C166.128 62.0417 166.039 61.4766 166.039 60.8672ZM167.484 60.6875V60.8672C167.484 61.2891 167.534 61.6875 167.633 62.0625C167.732 62.4323 167.88 62.7604 168.078 63.0469C168.281 63.3333 168.534 63.5599 168.836 63.7266C169.138 63.888 169.49 63.9688 169.891 63.9688C170.286 63.9688 170.633 63.888 170.93 63.7266C171.232 63.5599 171.482 63.3333 171.68 63.0469C171.878 62.7604 172.026 62.4323 172.125 62.0625C172.229 61.6875 172.281 61.2891 172.281 60.8672V60.6875C172.281 60.2708 172.229 59.8776 172.125 59.5078C172.026 59.1328 171.875 58.8021 171.672 58.5156C171.474 58.224 171.224 57.9948 170.922 57.8281C170.625 57.6615 170.276 57.5781 169.875 57.5781C169.479 57.5781 169.13 57.6615 168.828 57.8281C168.531 57.9948 168.281 58.224 168.078 58.5156C167.88 58.8021 167.732 59.1328 167.633 59.5078C167.534 59.8776 167.484 60.2708 167.484 60.6875ZM77.9922 87.0469V80.5469H79.4453V89H78.0625L77.9922 87.0469ZM78.2656 85.2656L78.8672 85.25C78.8672 85.8125 78.8073 86.3333 78.6875 86.8125C78.5729 87.2865 78.3854 87.6979 78.125 88.0469C77.8646 88.3958 77.5234 88.6693 77.1016 88.8672C76.6797 89.0599 76.1667 89.1562 75.5625 89.1562C75.151 89.1562 74.7734 89.0964 74.4297 88.9766C74.0911 88.8568 73.7995 88.6719 73.5547 88.4219C73.3099 88.1719 73.1198 87.8464 72.9844 87.4453C72.8542 87.0443 72.7891 86.5625 72.7891 86V80.5469H74.2344V86.0156C74.2344 86.3958 74.276 86.7109 74.3594 86.9609C74.4479 87.2057 74.5651 87.401 74.7109 87.5469C74.862 87.6875 75.0286 87.7865 75.2109 87.8438C75.3984 87.901 75.5911 87.9297 75.7891 87.9297C76.4036 87.9297 76.8906 87.8125 77.25 87.5781C77.6094 87.3385 77.8672 87.0182 78.0234 86.6172C78.1849 86.2109 78.2656 85.7604 78.2656 85.2656ZM83.0938 82.1719V92.25H81.6406V80.5469H82.9688L83.0938 82.1719ZM88.7891 84.7031V84.8672C88.7891 85.4818 88.7161 86.0521 88.5703 86.5781C88.4245 87.099 88.2109 87.5521 87.9297 87.9375C87.6536 88.3229 87.3125 88.6224 86.9062 88.8359C86.5 89.0495 86.0339 89.1562 85.5078 89.1562C84.9714 89.1562 84.4974 89.0677 84.0859 88.8906C83.6745 88.7135 83.3255 88.4557 83.0391 88.1172C82.7526 87.7786 82.5234 87.3724 82.3516 86.8984C82.1849 86.4245 82.0703 85.8906 82.0078 85.2969V84.4219C82.0703 83.7969 82.1875 83.237 82.3594 82.7422C82.5312 82.2474 82.7578 81.8255 83.0391 81.4766C83.3255 81.1224 83.6719 80.8542 84.0781 80.6719C84.4844 80.4844 84.9531 80.3906 85.4844 80.3906C86.0156 80.3906 86.487 80.4948 86.8984 80.7031C87.3099 80.9062 87.6562 81.1979 87.9375 81.5781C88.2188 81.9583 88.4297 82.4141 88.5703 82.9453C88.7161 83.4714 88.7891 84.0573 88.7891 84.7031ZM87.3359 84.8672V84.7031C87.3359 84.2812 87.2917 83.8854 87.2031 83.5156C87.1146 83.1406 86.9766 82.8125 86.7891 82.5312C86.6068 82.2448 86.3724 82.0208 86.0859 81.8594C85.7995 81.6927 85.4583 81.6094 85.0625 81.6094C84.6979 81.6094 84.3802 81.6719 84.1094 81.7969C83.8438 81.9219 83.6172 82.0911 83.4297 82.3047C83.2422 82.513 83.0885 82.7526 82.9688 83.0234C82.8542 83.2891 82.7682 83.5651 82.7109 83.8516V85.875C82.8151 86.2396 82.9609 86.5833 83.1484 86.9062C83.3359 87.224 83.5859 87.4818 83.8984 87.6797C84.2109 87.8724 84.6042 87.9688 85.0781 87.9688C85.4688 87.9688 85.8047 87.888 86.0859 87.7266C86.3724 87.5599 86.6068 87.3333 86.7891 87.0469C86.9766 86.7604 87.1146 86.4323 87.2031 86.0625C87.2917 85.6875 87.3359 85.2891 87.3359 84.8672ZM92.2031 77V89H90.75V77H92.2031ZM94.1406 84.8672V84.6875C94.1406 84.0781 94.2292 83.513 94.4062 82.9922C94.5833 82.4661 94.8385 82.0104 95.1719 81.625C95.5052 81.2344 95.9089 80.9323 96.3828 80.7188C96.8568 80.5 97.388 80.3906 97.9766 80.3906C98.5703 80.3906 99.1042 80.5 99.5781 80.7188C100.057 80.9323 100.464 81.2344 100.797 81.625C101.135 82.0104 101.393 82.4661 101.57 82.9922C101.747 83.513 101.836 84.0781 101.836 84.6875V84.8672C101.836 85.4766 101.747 86.0417 101.57 86.5625C101.393 87.0833 101.135 87.5391 100.797 87.9297C100.464 88.3151 100.06 88.6172 99.5859 88.8359C99.1172 89.0495 98.5859 89.1562 97.9922 89.1562C97.3984 89.1562 96.8646 89.0495 96.3906 88.8359C95.9167 88.6172 95.5104 88.3151 95.1719 87.9297C94.8385 87.5391 94.5833 87.0833 94.4062 86.5625C94.2292 86.0417 94.1406 85.4766 94.1406 84.8672ZM95.5859 84.6875V84.8672C95.5859 85.2891 95.6354 85.6875 95.7344 86.0625C95.8333 86.4323 95.9818 86.7604 96.1797 87.0469C96.3828 87.3333 96.6354 87.5599 96.9375 87.7266C97.2396 87.888 97.5911 87.9688 97.9922 87.9688C98.388 87.9688 98.7344 87.888 99.0312 87.7266C99.3333 87.5599 99.5833 87.3333 99.7812 87.0469C99.9792 86.7604 100.128 86.4323 100.227 86.0625C100.331 85.6875 100.383 85.2891 100.383 84.8672V84.6875C100.383 84.2708 100.331 83.8776 100.227 83.5078C100.128 83.1328 99.9766 82.8021 99.7734 82.5156C99.5755 82.224 99.3255 81.9948 99.0234 81.8281C98.7266 81.6615 98.3776 81.5781 97.9766 81.5781C97.5807 81.5781 97.2318 81.6615 96.9297 81.8281C96.6328 81.9948 96.3828 82.224 96.1797 82.5156C95.9818 82.8021 95.8333 83.1328 95.7344 83.5078C95.6354 83.8776 95.5859 84.2708 95.5859 84.6875ZM108.633 87.5547V83.2031C108.633 82.8698 108.565 82.5807 108.43 82.3359C108.299 82.0859 108.102 81.8932 107.836 81.7578C107.57 81.6224 107.242 81.5547 106.852 81.5547C106.487 81.5547 106.167 81.6172 105.891 81.7422C105.62 81.8672 105.406 82.0312 105.25 82.2344C105.099 82.4375 105.023 82.6562 105.023 82.8906H103.578C103.578 82.5885 103.656 82.2891 103.812 81.9922C103.969 81.6953 104.193 81.4271 104.484 81.1875C104.781 80.9427 105.135 80.75 105.547 80.6094C105.964 80.4635 106.427 80.3906 106.938 80.3906C107.552 80.3906 108.094 80.4948 108.562 80.7031C109.036 80.9115 109.406 81.2266 109.672 81.6484C109.943 82.0651 110.078 82.5885 110.078 83.2188V87.1562C110.078 87.4375 110.102 87.737 110.148 88.0547C110.201 88.3724 110.276 88.6458 110.375 88.875V89H108.867C108.794 88.8333 108.737 88.612 108.695 88.3359C108.654 88.0547 108.633 87.7943 108.633 87.5547ZM108.883 83.875L108.898 84.8906H107.438C107.026 84.8906 106.659 84.9245 106.336 84.9922C106.013 85.0547 105.742 85.151 105.523 85.2812C105.305 85.4115 105.138 85.5755 105.023 85.7734C104.909 85.9661 104.852 86.1927 104.852 86.4531C104.852 86.7188 104.911 86.9609 105.031 87.1797C105.151 87.3984 105.331 87.5729 105.57 87.7031C105.815 87.8281 106.115 87.8906 106.469 87.8906C106.911 87.8906 107.302 87.7969 107.641 87.6094C107.979 87.4219 108.247 87.1927 108.445 86.9219C108.648 86.651 108.758 86.388 108.773 86.1328L109.391 86.8281C109.354 87.0469 109.255 87.2891 109.094 87.5547C108.932 87.8203 108.716 88.0755 108.445 88.3203C108.18 88.5599 107.862 88.7604 107.492 88.9219C107.128 89.0781 106.716 89.1562 106.258 89.1562C105.685 89.1562 105.182 89.0443 104.75 88.8203C104.323 88.5964 103.99 88.2969 103.75 87.9219C103.516 87.5417 103.398 87.1172 103.398 86.6484C103.398 86.1953 103.487 85.7969 103.664 85.4531C103.841 85.1042 104.096 84.8151 104.43 84.5859C104.763 84.3516 105.164 84.1745 105.633 84.0547C106.102 83.9349 106.625 83.875 107.203 83.875H108.883ZM117.68 87.3594V77H119.133V89H117.805L117.68 87.3594ZM111.992 84.8672V84.7031C111.992 84.0573 112.07 83.4714 112.227 82.9453C112.388 82.4141 112.615 81.9583 112.906 81.5781C113.203 81.1979 113.555 80.9062 113.961 80.7031C114.372 80.4948 114.831 80.3906 115.336 80.3906C115.867 80.3906 116.331 80.4844 116.727 80.6719C117.128 80.8542 117.466 81.1224 117.742 81.4766C118.023 81.8255 118.245 82.2474 118.406 82.7422C118.568 83.237 118.68 83.7969 118.742 84.4219V85.1406C118.685 85.7604 118.573 86.3177 118.406 86.8125C118.245 87.3073 118.023 87.7292 117.742 88.0781C117.466 88.4271 117.128 88.6953 116.727 88.8828C116.326 89.0651 115.857 89.1562 115.32 89.1562C114.826 89.1562 114.372 89.0495 113.961 88.8359C113.555 88.6224 113.203 88.3229 112.906 87.9375C112.615 87.5521 112.388 87.099 112.227 86.5781C112.07 86.0521 111.992 85.4818 111.992 84.8672ZM113.445 84.7031V84.8672C113.445 85.2891 113.487 85.6849 113.57 86.0547C113.659 86.4245 113.794 86.75 113.977 87.0312C114.159 87.3125 114.391 87.5339 114.672 87.6953C114.953 87.8516 115.289 87.9297 115.68 87.9297C116.159 87.9297 116.552 87.8281 116.859 87.625C117.172 87.4219 117.422 87.1536 117.609 86.8203C117.797 86.487 117.943 86.125 118.047 85.7344V83.8516C117.984 83.5651 117.893 83.2891 117.773 83.0234C117.659 82.7526 117.508 82.513 117.32 82.3047C117.138 82.0911 116.911 81.9219 116.641 81.7969C116.375 81.6719 116.06 81.6094 115.695 81.6094C115.299 81.6094 114.958 81.6927 114.672 81.8594C114.391 82.0208 114.159 82.2448 113.977 82.5312C113.794 82.8125 113.659 83.1406 113.57 83.5156C113.487 83.8854 113.445 84.2812 113.445 84.7031Z" fill="#FAFAFA"/>
</svg>
